<svg width="220" height="220" viewBox="0 0 220 220" fill="none" xmlns="http://www.w3.org/2000/svg">
<mask id="path-1-inside-1_356_6" fill="white">
<path d="M174.279 186.604C159.697 198.84 141.925 206.66 123.053 209.144C104.18 211.629 84.9902 208.676 67.7382 200.631C50.4862 192.586 35.8886 179.784 25.6609 163.73C15.4331 147.676 10 129.036 10 110C10 90.9645 15.4331 72.3244 25.6609 56.27C35.8886 40.2157 50.4861 27.414 67.7382 19.3692C84.9902 11.3245 104.18 8.37088 123.053 10.8555C141.925 13.3401 159.697 21.1598 174.279 33.3955L110 110L174.279 186.604Z"/>
</mask>
<path d="M174.279 186.604C159.697 198.84 141.925 206.66 123.053 209.144C104.18 211.629 84.9902 208.676 67.7382 200.631C50.4862 192.586 35.8886 179.784 25.6609 163.73C15.4331 147.676 10 129.036 10 110C10 90.9645 15.4331 72.3244 25.6609 56.27C35.8886 40.2157 50.4861 27.414 67.7382 19.3692C84.9902 11.3245 104.18 8.37088 123.053 10.8555C141.925 13.3401 159.697 21.1598 174.279 33.3955L110 110L174.279 186.604Z" stroke="white" stroke-opacity="0.9" stroke-width="36" stroke-linecap="round" mask="url(#path-1-inside-1_356_6)"/>
<mask id="path-2-inside-2_356_6" fill="white">
<path d="M150.15 167.341C139.66 174.686 127.357 179.013 114.578 179.85C101.8 180.688 89.0365 178.004 77.6776 172.091C66.3187 166.178 56.7995 157.262 50.1562 146.314C43.5129 135.366 40 122.806 40 110C40 97.1942 43.5128 84.6337 50.1562 73.6859C56.7995 62.738 66.3187 53.8223 77.6776 47.9092C89.0365 41.9962 101.8 39.3123 114.578 40.1499C127.357 40.9874 139.66 45.3142 150.15 52.6594L110 110L150.15 167.341Z"/>
</mask>
<path d="M150.15 167.341C139.66 174.686 127.357 179.013 114.578 179.85C101.8 180.688 89.0365 178.004 77.6776 172.091C66.3187 166.178 56.7995 157.262 50.1562 146.314C43.5129 135.366 40 122.806 40 110C40 97.1942 43.5128 84.6337 50.1562 73.6859C56.7995 62.738 66.3187 53.8223 77.6776 47.9092C89.0365 41.9962 101.8 39.3123 114.578 40.1499C127.357 40.9874 139.66 45.3142 150.15 52.6594L110 110L150.15 167.341Z" stroke="white" stroke-opacity="0.6" stroke-width="28" stroke-linecap="round" mask="url(#path-2-inside-2_356_6)"/>
<circle cx="110" cy="110" r="45" fill="white" fill-opacity="0.25"/>
</svg>
